<svg height="80" viewBox="0 0 181 80" width="181" xmlns="http://www.w3.org/2000/svg"><path d="m57.1862882 34.6332084c-12.5334762 0-22.6566685 10.1231922-22.6566685 22.6566684s10.1231923 22.6566685 22.6566685 22.6566685c12.5334761 0 22.6566684-10.1231923 22.6566684-22.6566685s-10.1231923-22.6566684-22.6566684-22.6566684m6.8452062 33.7439742h-19.1858597l10.4124264-16.293519h-9.9303696l4.338511-6.9416175h18.9930369l-10.1231923 16.1006963h10.1231923zm-6.8452062-60.16068555v-7.61649705c-31.3336904 0-56.7862882 25.4525978-56.7862882 56.7862882h7.61649705c.09641136-27.1880022 22.07820035-49.16979115 49.16979115-49.16979115m0 15.13658275v-7.616497c-22.9459026 0-41.6497054 18.7038028-41.6497054 41.6497054h7.616497c.0964114-18.8002143 15.3294055-34.0332084 34.0332084-34.0332084m40.8784145 37.2147831-1.8318157 8.1949652h-7.5200857l-6.9416176-24.0064275h8.677022l1.8318157 10.6052491c.1928227 1.0605249.4820568 2.6031066.5784682 4.7241564h.1928227c.0964113-1.8318157.3856454-3.1815747.5784681-4.0492769l2.3138725-11.1837172h6.0739151l2.313873 11.1837172c.192823.8677022.482057 2.2174612.578468 4.0492769h.192823c.096411-2.1210498.385645-3.6636315.578468-4.7241564l1.928227-10.5088377h8.677022l-7.038029 23.9100161h-7.520086l-1.8318155-8.1949652c-.1928227-1.0605249-.5784682-2.3138725-.6748795-3.9528656h-.2892341c-.289234 1.5425817-.5784681 2.7959293-.8677022 3.9528656m24.0064273-15.8114623h9.544724l8.387788 24.0064275h-9.25549l-.771291-2.988752h-6.459561l-.77129 2.988752h-9.25549zm6.36315 15.2329942-.771291-2.699518c-.289234-1.2533476-.867702-2.988752-.964114-5.3026245h-.192823c-.096411 2.3138725-.674879 3.9528655-.964113 5.3026245l-.771291 2.699518zm7.616497-15.2329942h9.351901l2.506695 8.677022c.385646 1.2533476.964114 3.0851634 1.156937 5.68827h.192822c.289234-2.2174612.771291-4.049277 1.253348-5.4954473l2.699518-8.8698447h9.159079l-9.159079 23.9100161h-8.002143zm28.055704.0964114h16.004285v6.4595608h-7.616497v2.3138725h6.845206v6.1703267h-6.748795v2.5066953h7.80932v6.4595608h-16.197108z" fill="#1f355e"/></svg>