<svg xmlns="http://www.w3.org/2000/svg" viewBox="0 -2.5 21 21"><path d="M17.7 1.4A17 17 0 0 0 13.4.2l-.5 1a16 16 0 0 0-4.8 0 11.4 11.4 0 0 0-.6-1 16.7 16.7 0 0 0-4.2 1.3 17.4 17.4 0 0 0-3 11.8 17 17 0 0 0 5.2 2.5c.4-.5.8-1 1-1.7L5 13.2V13a10 10 0 0 0 .4-.2 12.3 12.3 0 0 0 10.5 0l.3.2v.2l-1.6.7s-.1 0 0 .1c.2.6.6 1.2 1 1.7a17 17 0 0 0 5.2-2.6 17.3 17.3 0 0 0-3-11.8zM7 11c-1 0-1.9-1-1.9-2.1 0-1.2.8-2 1.9-2 1 0 1.8.8 1.8 2 0 1.1-.8 2-1.8 2zm6.8 0c-1 0-1.8-1-1.8-2.1 0-1.2.8-2 1.8-2s2 .8 1.9 2c0 1.1-.8 2-1.9 2zm0 0"/></svg>