<svg xmlns="http://www.w3.org/2000/svg" viewBox="0 0 512 512"><path d="M75 512h362a75 75 0 0 0 75-75V75a75 75 0 0 0-75-75H75A75 75 0 0 0 0 75v362a75 75 0 0 0 75 75zM30 75a45 45 0 0 1 45-45h362a45 45 0 0 1 45 45v362a45 45 0 0 1-45 45H75a45 45 0 0 1-45-45zm0 0"/><path d="M256 391c74.4 0 135-60.6 135-135s-60.6-135-135-135-135 60.6-135 135 60.6 135 135 135zm0-240a105.1 105.1 0 0 1 0 210 105.1 105.1 0 0 1 0-210zm150 0a45 45 0 1 0-.1-90.1 45 45 0 0 0 .1 90.1zm0-60a15 15 0 1 1 0 30 15 15 0 0 1 0-30zm0 0"/></svg>