<svg xmlns="http://www.w3.org/2000/svg" fill="currentColor" stroke="transparent" viewBox="31.9 31.9 336.6 336.3"><path d="M43.8 34a18 18 0 0 0-10.1 10.2c-1.8 4-1.8 5-1.8 155.8v151.8l2 4.4a18 18 0 0 0 10.3 10.1c4 1.8 5 1.8 155.8 1.8h151.8l4.4-2a18 18 0 0 0 10.1-10.3c2.8-6.3 2.8-305.3 0-311.6A18 18 0 0 0 356.2 34l-4.4-2.1H48.2l-4.4 2M350 50.2c2.2 2 2.2 297.7 0 299.8-2 2.2-297.7 2.2-299.8 0-2.2-2-2.2-297.7 0-299.8 2-2.2 297.7-2.2 299.8 0M183.2 237.6c0 48-.2 54.8-1.4 58-4.7 11.6-22.7 10.3-32.6-2.4-2-2.5-3.9-4.6-4.2-4.6-1.8-.3-25.6 15.3-25.1 16.4 11.5 30.1 61.9 41.7 84.2 19.3 12-11.9 12-12.7 12.5-82.5l.3-58.6h-33.8v54.4m93.4-53.5c-23.2 2.6-37.7 18.1-37.7 40.7 0 23 9.1 33.7 40.4 47.6 20.2 9 25.1 13.6 24.1 22.7-2.2 19.4-31 17.3-44-3.1-1.6-2.4-3-4.4-3.2-4.4-.9 0-24.2 16-24.2 16.6a52 52 0 0 0 11.4 16.2c25 24.7 76 20 89-8.2a48 48 0 0 0-3.2-44.4c-5.7-8.6-14.2-13.9-44.9-28-12-5.6-15.2-9.7-14.3-18.1 1.4-12.7 21-14 30-2.1 3.7 5 2.6 5.2 15.4-2.9 13.8-8.8 13.1-7.6 8.2-14.4-10.1-14.3-26-20.4-47-18.2"/></svg>