<svg xmlns="http://www.w3.org/2000/svg" viewBox="0 -47 512 512"><path d="M512 56c-32.2 1.4-31.5 1.3-35.1 1.6l19-54.4S436.4 25 421.3 29C381.7-6.6 322.7-8.2 280.6 17.7a97.4 97.4 0 0 0-46.8 100.2A259.9 259.9 0 0 1 65.4 23L51.3 6 40.7 25.5a117.1 117.1 0 0 0-12.4 78.8c2.1 10.9 5.8 21.2 11 30.8L27 130.4l-1.4 20.3A108 108 0 0 0 44 214.9c3.6 5.5 8.3 11.6 14.3 17.6l-6.3-1 7.6 23.2c10 30.5 31 54 58 67.2a984.8 984.8 0 0 1-84.8 30.6L0 363.3l30.3 16.6c11.6 6.3 52.5 27.4 92.9 33.8 89.7 14 190.8 2.6 258.8-58.7 57.3-51.6 76.1-125 72.2-201.4a47.7 47.7 0 0 1 9-31.1c12.7-17 48.7-66.4 48.8-66.5zm-72.8 48.5a77.7 77.7 0 0 0-14.9 50.6c4 77-17 136.8-62.3 177.6-53 47.7-138.3 66.4-234.2 51.3a232.2 232.2 0 0 1-50.2-14.9 795.6 795.6 0 0 0 90.9-37.3l52.4-24.8-57.8-3.7a81.8 81.8 0 0 1-65-37c7.5-.5 14.8-1.7 22-3.7l55.2-15.4-55.7-13.6a82.9 82.9 0 0 1-61.5-59.4c5.5 1.5 12 2.6 22.5 3.6l51.5 5.1-40.8-31.8C62 128 50.1 93.7 58.8 60.6c91.7 95.1 199.5 88 210.3 90.5-2.4-23.2-2.4-23.2-3-25.4a68.9 68.9 0 0 1 30.2-82.5C325 25.6 370.5 22.9 402 52c6.8 6.2 16 8.7 24.6 6.5 7.8-1.9 14.1-4 20.3-6.1l-12.9 37h16.5l-11.3 15.1zm0 0"/></svg>