<?xml version="1.0" encoding="UTF-8"?>
<svg xmlns="http://www.w3.org/2000/svg" xmlns:xlink="http://www.w3.org/1999/xlink" viewBox="0 -2.5 21 21" version="1.1">
<path   d="M 60.102669 4.902559 C 55.579429 2.816719 50.720636 1.296074 45.647091 0.421367 C 45.566558 0.394453 45.472604 0.434824 45.418916 0.529023 C 44.8015 1.6325 44.103552 3.085859 43.620357 4.21625 C 38.157571 3.408828 32.735052 3.408828 27.393065 4.21625 C 26.90987 3.058945 26.185078 1.6325 25.567662 0.529023 C 25.513974 0.448281 25.420019 0.40791 25.326065 0.421367 C 20.252519 1.282617 15.407149 2.816719 10.883909 4.902559 C 10.843643 4.916016 10.803377 4.94293 10.776532 4.983301 C 1.582409 18.736387 -0.940942 32.13959 0.29389 45.394766 C 0.29389 45.462051 0.334156 45.515879 0.387844 45.55625 C 6.454623 50.023984 12.346916 52.728848 18.118409 54.518633 C 18.212364 54.545547 18.306318 54.518633 18.360006 54.437891 C 19.729058 52.567363 20.950468 50.602637 21.99739 48.543711 C 22.051078 48.422598 21.99739 48.27457 21.863169 48.220742 C 19.93039 47.494062 18.091565 46.605898 16.333273 45.583164 C 16.18563 45.502422 16.172208 45.300566 16.306429 45.206367 C 16.682247 44.92377 17.044643 44.641172 17.407039 44.345117 C 17.474149 44.291289 17.554682 44.277832 17.635214 44.318203 C 29.258734 49.620273 41.835221 49.620273 53.324519 44.318203 C 53.39163 44.277832 53.485584 44.291289 53.552695 44.345117 C 53.901669 44.641172 54.277487 44.92377 54.653305 45.206367 C 54.787526 45.300566 54.774104 45.502422 54.639883 45.583164 C 52.868169 46.619355 51.029344 47.494062 49.096565 48.220742 C 48.962344 48.27457 48.908656 48.422598 48.975766 48.543711 C 50.03611 50.602637 51.257519 52.567363 52.599727 54.437891 C 52.653416 54.518633 52.74737 54.545547 52.841325 54.518633 C 58.653084 52.728848 64.531955 50.023984 70.598734 45.55625 C 70.652422 45.515879 70.692688 45.462051 70.692688 45.394766 C 72.169117 30.080664 68.209604 16.77166 60.196623 4.983301 C 60.183201 4.94293 60.142935 4.916016 60.102669 4.902559 Z M 23.728838 37.320547 C 20.225675 37.320547 17.339929 34.117773 17.339929 30.174863 C 17.339929 26.218496 20.171987 23.015723 23.728838 23.015723 C 27.312532 23.015723 30.158013 26.258867 30.104325 30.174863 C 30.104325 34.117773 27.285688 37.320547 23.728838 37.320547 Z M 47.311429 37.320547 C 43.821688 37.320547 40.935942 34.117773 40.935942 30.174863 C 40.935942 26.218496 43.768 23.015723 47.311429 23.015723 C 50.895123 23.015723 53.754026 26.258867 53.700338 30.174863 C 53.700338 34.117773 50.895123 37.320547 47.311429 37.320547 Z M 47.311429 37.320547 " transform="matrix(0.291032,0,0,0.290276,0.168375,0.0261248)"/>
</svg>
