<svg xmlns="http://www.w3.org/2000/svg" xmlns:xlink="http://www.w3.org/1999/xlink" viewBox="31.88 31.88 336.56 336.25" fill="currentColor" stroke="transparent">
<path d="M43.805 33.962 C 38.532 36.449,36.129 38.896,33.703 44.248 C 31.908 48.206,31.897 49.138,31.886 200.000 L 31.876 351.770 33.962 356.195 C 36.449 361.468,38.896 363.871,44.248 366.297 C 48.206 368.092,49.138 368.103,200.000 368.114 L 351.770 368.124 356.195 366.038 C 361.468 363.551,363.871 361.104,366.297 355.752 C 369.145 349.471,369.145 50.529,366.297 44.248 C 363.871 38.896,361.468 36.449,356.195 33.962 L 351.770 31.876 200.000 31.876 L 48.230 31.876 43.805 33.962 M349.937 50.063 C 352.065 52.191,352.065 347.809,349.937 349.937 C 347.809 352.065,52.191 352.065,50.063 349.937 C 47.935 347.809,47.935 52.191,50.063 50.063 C 52.191 47.935,347.809 47.935,349.937 50.063 M183.186 237.593 C 183.186 285.594,183.018 292.420,181.758 295.569 C 177.103 307.202,159.106 305.891,149.154 293.194 C 147.186 290.682,145.336 288.598,145.044 288.561 C 143.216 288.335,119.420 303.907,119.857 305.044 C 131.408 335.147,181.752 346.662,204.114 324.317 C 216.018 312.422,216.143 311.589,216.580 241.814 L 216.947 183.186 200.066 183.186 L 183.186 183.186 183.186 237.593 M276.549 184.147 C 253.262 186.651,238.812 202.209,238.829 224.758 C 238.846 247.757,247.947 258.499,279.204 272.414 C 299.422 281.415,304.345 286.048,303.323 295.112 C 301.141 314.477,272.390 312.446,259.270 292.001 C 257.720 289.586,256.285 287.611,256.079 287.611 C 255.211 287.611,231.859 303.629,231.867 304.219 C 231.894 306.373,238.306 315.456,243.280 320.387 C 268.223 345.116,319.235 340.401,332.329 312.157 C 338.653 298.516,337.307 280.211,329.066 267.768 C 323.412 259.233,314.943 253.939,284.240 239.748 C 272.243 234.203,268.979 230.089,269.902 221.681 C 271.293 209.016,290.905 207.650,299.825 219.597 C 303.591 224.642,302.541 224.837,315.283 216.720 C 329.125 207.902,328.423 209.133,323.523 202.267 C 313.369 188.037,297.457 181.899,276.549 184.147" />
</svg>
