<svg xmlns="http://www.w3.org/2000/svg" viewBox="0 0 631 106"><g fill="none"><path fill="#161326" d="M0 12.7 16.5 10v17.2h19.8v13.7H16.5v20.5c0 3.5.6 6.3 1.8 8.3 1.2 2.1 3.7 3.2 7.4 3.2 3.6 0 7.2-.7 10.6-2l2.3 13A38.6 38.6 0 0 1 11.8 85 17.5 17.5 0 0 1 1.1 71.9C.3 68.6 0 65 0 61.7v-49zm102.6 14.5A510.1 510.1 0 0 1 92 58.8c-3.5 9.7-7.5 19.2-11.8 28.6-1.4 3-3 5.7-4.7 8.5a26.2 26.2 0 0 1-5 5.7 18 18 0 0 1-6.4 3.3 33.3 33.3 0 0 1-20.7-1.3l3-13.1a28.2 28.2 0 0 0 8.7 1.5c3 0 5.2-.8 6.8-2.4a19 19 0 0 0 4-6.6A330.7 330.7 0 0 1 44 27.2h17.5l2.6 9.3A443 443 0 0 0 74 65.6a245.3 245.3 0 0 0 6-18.9l5.4-19.5h17zm46 29.6a20 20 0 0 0-3.4-12.3c-2.3-3-5.7-4.6-10.2-4.6a46 46 0 0 0-7.2.6v29.8c1.2.8 2.6 1.3 4 1.7 1.7.4 3.4.6 5 .6 7.9 0 11.8-5.3 11.8-15.8zm16.8-.5a43 43 0 0 1-1.7 12.3c-1 3.5-2.6 6.7-4.8 9.6a22 22 0 0 1-8 6.2 29.4 29.4 0 0 1-23.1-.3V106h-16.5V29.2a65 65 0 0 1 11.1-2.4 115.8 115.8 0 0 1 12.7-1c4.8 0 9 .8 12.8 2.2a25.8 25.8 0 0 1 15.5 15.7c1.3 3.8 2 8 2 12.6zm48.7-5.8c-.1-1.4-.3-2.8-.7-4.1-.4-1.3-1-2.5-2-3.6-.8-1-2-2-3.1-2.5-1.5-.8-3.2-1-4.9-1a9.8 9.8 0 0 0-8 3.4 8 8 0 0 0-2 3.6c-.5 1.3-.9 2.7-1.1 4.2H214zm-38.7 6.3c0-5.2.7-9.7 2.3-13.6a29 29 0 0 1 6.3-9.7 27.8 27.8 0 0 1 19.3-7.9c8.2 0 14.7 2.6 19.5 7.6 4.8 5 7.2 12.5 7.2 22.4l-.1 3.1-.2 3h-37.4A11 11 0 0 0 197 70c2.8 2 6.6 3 11.3 3a47.7 47.7 0 0 0 16-3l2.3 13.5a45.5 45.5 0 0 1-14.3 3.3c-2 .2-4.1.3-6.2.3-5.2 0-9.8-.7-13.7-2.3a25.3 25.3 0 0 1-15.3-16 38 38 0 0 1-1.8-12z"/><path fill="#5AB783" d="M269.2 83.5 241 61.3v-5.5l28.2-22 2.5 6.6-22.4 18.2 22.4 18.1-2.5 6.8zM326 56.9c0-6.5-1.5-11.6-4.4-15.4a14.1 14.1 0 0 0-11.8-5.7c-5 0-9 2-11.8 5.7-3 3.8-4.4 9-4.4 15.4 0 6.5 1.5 11.6 4.4 15.4a14 14 0 0 0 11.8 5.7c5 0 9-2 11.8-5.7 3-3.8 4.4-9 4.4-15.4zm10.7 0c0 4.2-.7 8.4-2 12.3a28.2 28.2 0 0 1-5.6 9.5 24.5 24.5 0 0 1-8.5 6.1 27.4 27.4 0 0 1-21.6.1 24.4 24.4 0 0 1-8.5-6.2 28.3 28.3 0 0 1-5.6-9.5 39.6 39.6 0 0 1 0-24.6 28 28 0 0 1 5.6-9.5 24.9 24.9 0 0 1 19.3-8.3c3.9 0 7.5.7 10.8 2.1a27.2 27.2 0 0 1 14.1 15.7c1.3 4 2 8.1 2 12.3zm31-56.9A39.2 39.2 0 0 1 380 1.9l-1.9 8.8c-1.2-.6-2.4-1-3.7-1.3-1.6-.4-3.6-.6-6-.6-4.7 0-8 1.3-10 4a17.5 17.5 0 0 0-2.8 10.5v5h22v8.5h-22v48.8h-10.3V23c0-7.4 1.8-13 5.4-17 3.6-4 9.3-6 17-6zM418 61.4l-28.2 22-2.5-6.5 22.4-18.3-11.2-9c-3.7-3.2-7.4-6.2-11.2-9.2l2.5-6.7L418 55.8v5.6z"/><path fill="#161326" d="M465 52.2a499.7 499.7 0 0 1-9.9 33.3h-12.8a483 483 0 0 1-14.2-41c-1.8-5.6-3.5-11.3-5.1-17h17.4a1785 1785 0 0 0 6.6 28.3 316 316 0 0 0 2.6 9.6 445.1 445.1 0 0 0 5.5-19.9l2.4-9.4 2-8.6h12l2 8.6 2.3 9.4a702.1 702.1 0 0 0 5.3 20 433 433 0 0 0 7.4-29.3l2-8.7h17a875.7 875.7 0 0 1-15 47 216 216 0 0 1-4.3 11h-12.8l-5.5-16.7a329 329 0 0 1-4.8-16.6zm86-1.5c-.1-1.4-.4-2.8-.8-4.1a10 10 0 0 0-5-6 9.4 9.4 0 0 0-4.9-1 9.8 9.8 0 0 0-10.1 7 18 18 0 0 0-1 4h21.7zm-38.8 6.2c0-5.1.8-9.6 2.4-13.5a29 29 0 0 1 6.3-9.6A28 28 0 0 1 540 26c8.3 0 14.8 2.5 19.6 7.5 4.8 5 7.2 12.5 7.2 22.2l-.1 3.2-.3 3h-37.3c.3 3.2 2 6.2 4.7 8 2.8 2 6.6 3 11.3 3a48 48 0 0 0 16-2.9l2.2 13.4a45.7 45.7 0 0 1-14.3 3.3c-2 .2-4 .3-6.1.3-5.3 0-9.8-.8-13.7-2.3A25 25 0 0 1 514 68.8a37.6 37.6 0 0 1-1.8-11.9zm102-.8c0-10.6-4-16-11.7-16a19.3 19.3 0 0 0-9.1 2.4v29.9a33.2 33.2 0 0 0 7.2.5c4.5 0 7.9-1.5 10.2-4.6a20 20 0 0 0 3.4-12.2zm16.8.4c0 4.6-.7 8.8-2 12.5a26 26 0 0 1-15.4 15.7 36 36 0 0 1-12.9 2.2 74.8 74.8 0 0 1-12.7-1 83 83 0 0 1-11-2.3v-81L593.3 0v28.9a29.5 29.5 0 0 1 23.1-.4c3.2 1.4 5.8 3.4 8 6 2.2 2.9 3.9 6.1 4.8 9.6 1.2 4 1.7 8.2 1.7 12.4z"/></g></svg>