<svg xmlns="http://www.w3.org/2000/svg" version="1.0" viewBox="0 0 800 800"><path d="M107.5 125c-2.2.5-6.2 1.1-9 1.4l-7.5 1.1a112.5 112.5 0 0 1-11.8 2l-2.5.4c-.4.1-.7 27.2-.7 60.3.2 65.2.6 72.6 5.5 83.1a40.9 40.9 0 0 0 27 22.3c7.4 2.3 33.6 2.6 40 .6l9.5-3 5.7-1.7c.2-.1-2.4-15.9-3.1-19l-1.1-5.8c-.6-3.9-1.1-4.7-2.4-4.1-8.8 3.6-26 4.6-32.9 1.9-5-2-8.6-7.4-9.8-14.5-.4-2.5-.8-16.1-.8-30.3l-.2-25.7h45.5l-.1-15.5-.1-15.5h-22.2c-16.9 0-22.4-.3-22.7-1.3-.2-.6-.4-9.4-.3-19.5.1-12.1-.3-18.2-1-18.1l-5 .9zm263.3 35.5c-.2.2-3.5.5-7.3.9-7.8.7-13.6 1.6-20.5 3.1l-6.7 1.4-6.3 1.4V342h37.7l.1-22.8.1-24.8c.1-2 .1-2 7.4.4 6.2 2.1 9.1 2.5 20.2 2.5a52.2 52.2 0 0 0 51.2-31.3c2.7-5.7 3.7-9.1 5.9-19 1-4.7 1.3-25.5.4-31.5a61.4 61.4 0 0 0-52.4-54c-6.6-1.1-28.8-1.9-29.8-1zm22.3 32.5c13.9 3.8 21.9 16.9 22.1 36 .2 18.2-3.7 28.3-13.2 33.8-4.1 2.4-5.5 2.7-14.5 2.7-8.6 0-10.7-.4-14.9-2.5l-5-2.5.1-32 .2-33.7c.1-.9 1.1-1.8 2.4-2a90 90 0 0 1 22.8.2zm125.1-31a62 62 0 0 0-35.1 23.6 87.6 87.6 0 0 0-9.8 21.3 61.7 61.7 0 0 0-2.7 23.1 69 69 0 0 0 5.1 32 54.9 54.9 0 0 0 21.8 26.7 80.1 80.1 0 0 0 24.5 9.8 194 194 0 0 0 34 .5l8.5-1.3c10.1-1.4 21.5-5 21.5-6.9 0-1.1-3.8-24.1-4.5-27.5l-.5-2.2-5.8 2a100 100 0 0 1-39.4 3.7A38.5 38.5 0 0 1 516 258c-3.5-3.4-7-10.1-7-13.2v-2.4l41.6.1a375 375 0 0 0 42.4-1c.5-.6.7-7.6.6-15.5-.6-23.4-5.5-37.7-17-49.4a53.9 53.9 0 0 0-40.1-16.1c-8.5-.3-12.6 0-18.3 1.5zm22.9 30a26.1 26.1 0 0 1 13.8 12.4c2.2 5.2 3.2 9.9 2.3 11.2-.4.7-9.4 1-24.4 1-26.9 0-25.2.6-22.2-8.3 4.5-13.3 17-20 30.5-16.3zm-361.5-21.8a785.4 785.4 0 0 0 42.9 110.1l4.6 9.5-2.5 5c-7.6 15.1-16.3 17.9-39.6 12.6-2.5-.5-2.5-.4-5.6 13.8-2 9-2.9 14.7-2.3 15.4 1.7 2.1 14.3 4.7 24.4 5 10.4.3 20.3-1.1 26.6-3.9a54.5 54.5 0 0 0 18.5-16c4.2-5.7 12.9-22.1 18.3-34.7l4.7-10.8 2.4-5.7c0-.3.9-2.4 1.9-4.8 1.1-2.3 3-7.1 4.4-10.7l4.7-12a1391 1391 0 0 0 26.6-79.3c.5-1.6-.8-1.7-18.9-1.7h-19.4l-2.2 8.2c-9.7 36-21.9 76.5-23.7 78.7-1.2 1.4-26.1-74.5-27.8-84.9-.2-1.3-3.4-1.5-20.3-1.8l-20.1-.2 2.4 8.2zm266 143.4c-9 2-14.6 4.7-20.5 10a46.4 46.4 0 0 0-13.8 25.1c-.4 1.5-.9 38-1 81l-.4 78.3h23.7l-.1-54.3c0-29.8.1-54.9.3-55.8.3-1.3 3.5-1.5 25.3-1.5 13.7.1 25-.1 25-.4l.3-9.7c.1-7.5-.1-9.2-1.4-9.5-.8-.2-12.1-.3-25.2-.2l-23.6.1-.5-2.3c-.7-3.7.2-16.6 1.4-21.4 4.1-15.4 12.5-21 30.9-20.5a58 58 0 0 1 14.3 2c2.7.9 5 1.5 5.2 1.3a118 118 0 0 0 4.1-19.6c-.3-.2-3.1-1.1-6.3-1.9-8.5-2.1-29.3-2.5-37.7-.7zm-130.1 61.9c-23.8 5.3-39.7 22.7-46.1 50.6-1.1 4.6-1.3 25.5-.3 31.4 4.1 25.3 19.4 44.5 41 51.5a70 70 0 0 0 37.7.1c21.3-7 36.6-25.9 41-50.6 1.4-7.7.6-29.6-1.2-36.5-6.1-22.9-19.1-37.9-38.7-44.7-8.9-3.1-24-3.9-33.4-1.8zm29.1 22.9c14 7.6 20.7 22.1 20.8 44.6 0 22.2-6.8 36.9-20.5 44.5-5 2.8-6.1 3-15.9 3s-10.9-.2-15.9-3c-14-7.8-21.1-23.8-20.5-46.5.6-22.7 8.9-38.1 23.7-44a39.9 39.9 0 0 1 28.3 1.4zM232.4 393l-7.3 5.8-50.3 39.5c-2.5 2-2.8 2.8-2.7 8.7v6.5l31.1 24.5a835.7 835.7 0 0 0 32.3 24.8c1.4.3 6.9-13.8 5.8-14.8l-9.3-7.6-9-7.4a1841 1841 0 0 0-25.6-20.7 49.5 49.5 0 0 1-5.8-5.1c-.3-.5.9-1.9 2.7-3.2 3-2.3 24.6-19.9 25.7-21l21.2-17.1c.4-.3-.5-4-2-8.2l-2.8-7.8-4 3.1zm281.1-2c-.9 1.5-5.6 14.2-5.3 14.5l23.3 19c12.6 10.3 24 19.4 25.3 20.3l2.4 1.5-2.9 2.6a3650 3650 0 0 1-48.1 39.6 57 57 0 0 0 6 14.5c.7 0 30.1-22.6 34.5-26.5l15.2-12 14.1-11v-13.1L554.4 422l-26.2-20.6-8.4-6.8c-3.1-2.5-6-4.1-6.3-3.6zM629 477a665.6 665.6 0 0 0-28.3 4.6l-2.7.6.2 93.1.3 93.2 7 1.8a144.8 144.8 0 0 0 16.6 3.2c1.5 1 18 2 30.4 1.9 23.5-.1 37.2-5.1 50.5-18.4 12.6-12.6 17.9-26.4 18.5-48.5.7-26.4-5.8-45.3-20-58.3-14.3-13.1-38.6-17.2-59.4-10.1-3 1.1-5.6 1.7-5.9 1.4a569 569 0 0 1-.6-32.6c-.1-20.6-.5-32.3-1.1-32.4-.5-.2-3 .1-5.5.5zm36.9 93c7.7 2.1 13.6 9.7 16.2 20.7 1 4.4 1.4 21.8.6 25.3-3 13-8.1 20.6-16.5 24.7-5.3 2.6-6.5 2.8-17.5 2.7a80 80 0 0 1-12.3-.7c-.5-.5-.8-51.6-.5-66.3.1-2.8.6-3.3 4.6-4.8a41.2 41.2 0 0 1 25.4-1.6zm-167.6-32a61.6 61.6 0 0 0-42.2 36.8 92 92 0 0 0-1 61.7 60.8 60.8 0 0 0 48.7 38.2c6.1 1 28.1 1 35.2 0 13-1.8 27-5.9 27-7.9 0-1.2-3.8-24.2-4.5-27.4l-.5-2.1-5.6 1.8a96.6 96.6 0 0 1-45.8 2.5 29.4 29.4 0 0 1-20.6-19.5c-.6-2.2-.5-3.1.3-3.2.7-.1 19.4-.3 41.7-.3 22.3-.1 41-.5 41.7-.9 1.9-1.2 1-27.5-1.2-36.7a55 55 0 0 0-55.5-44.5 55 55 0 0 0-17.7 1.5zm27 31.8a26.3 26.3 0 0 1 12.1 19.2l.3 3.6h-24.3c-27.7 0-25.8.7-22.8-8.5a23.5 23.5 0 0 1 24.4-16.8c4.8.2 7.6.9 10.3 2.5zm-275.2-23.1c1.8 6.6 6 21.2 10.1 34.3l2.8 9.5c2.1 7.8 19.5 58.4 23.7 69l4.8 12 14.7.3 14.6.3 3.5-10.8c4.6-14.1 8.6-27.1 14.2-46.8l4.8-16.9c.2-.5 1.8 4.5 3.6 11 3.1 11 6.1 20.7 16 51.4l3.8 11.5h29.6l5.8-14.9a1242 1242 0 0 0 30.4-91.1l4.4-15 2.6-8.8c.7-1.6-.6-1.7-18.9-1.7-19.5 0-19.6 0-20.1 2.2l-3.1 13.8-3 14c-.9 4.5-10.5 42.3-12.7 49.5l-2.1 7-1.7-6.5c-4.3-16.6-14.9-58.5-16.8-67l-2.7-11.3c-.5-1.5-2-1.7-13.9-1.7h-13.4l-1 3.7-4.7 19.1c-.8 3.7-10.3 39.9-12.4 47.2l-3 11c-.9 3.3-1.4 4-2 2.9-1.3-2.3-9.6-34.8-13.6-53.4l-3.7-16-3.2-14-19.6-.3-19.7-.2 1.9 6.7z"/></svg>