<?xml version="1.0" encoding="UTF-8"?>
<svg viewBox="0 0 631 106" version="1.1" xmlns="http://www.w3.org/2000/svg" xmlns:xlink="http://www.w3.org/1999/xlink">
    <g id="Page-1" stroke="none" stroke-width="1" fill="none" fill-rule="evenodd">
        <g id="facebook-typescript-na-powaznie" transform="translate(-67.000000, -65.000000)" fill-rule="nonzero">
            <g id="Group-5" transform="translate(67.000000, 65.000000)">
                <path d="M0,12.6601286 L16.4866551,10 L16.4866551,27.1750045 L36.2897747,27.1750045 L36.2897747,40.9229964 L16.4866551,40.9229964 L16.4866551,61.4371413 C16.4866551,64.9040957 17.1005199,67.6760615 18.3202773,69.7450504 C19.5320624,71.8220277 21.9875217,72.852528 25.6707106,72.852528 C29.2901213,72.8445396 32.8856153,72.2054697 36.2897747,70.9672717 L38.6176776,83.8285541 C36.4592909,84.6934462 34.2394914,85.3957109 31.9767764,85.9294965 C29.0344901,86.5737491 26.0271588,86.8713364 23.0159445,86.816206 C18.5195841,86.816206 14.7885615,86.2090896 11.8388215,84.9868683 C9.08792794,83.9132753 6.65264692,82.1600684 4.75944541,79.8902856 C2.92582322,77.5736571 1.65025997,74.8576099 1.05233969,71.9658184 C0.323620233,68.5803004 -0.0266599368,65.124009 0.00797227036,61.6608158 L0.00797227036,12.6601286 L0,12.6601286 Z M102.555286,27.1750045 C99.4263207,37.8172332 95.9512148,48.3541932 92.1355286,58.7690243 C88.5675619,68.4604316 84.6046751,78.0012319 80.2568458,87.3674038 C78.9221906,90.3081339 77.3685239,93.1440293 75.6090121,95.8510572 C74.2015722,98.015312 72.4821902,99.958908 70.5067591,101.618663 C68.660302,103.12984 66.5332426,104.259323 64.2485269,104.941827 C61.6031153,105.68554 58.8640127,106.040728 56.1168111,105.996292 C51.8316665,106.035547 47.5791866,105.246259 43.5923744,103.671676 L46.4623917,90.4748814 C47.9405311,91.0083194 49.4605435,91.4171469 51.0065858,91.6971026 C52.3299827,91.9207771 53.7331023,92.0326144 55.2079723,92.0326144 C58.1577123,92.0326144 60.4298094,91.2337769 62.0162912,89.6440905 C63.6107452,88.054404 64.9500867,85.8576011 66.0582322,83.0456934 C61.9543356,74.9107004 58.1882013,66.6090013 54.7694974,58.1619079 C50.6842724,48.0279561 47.1369694,37.6845329 44.142461,27.1750045 L61.6256499,27.1750045 C62.3670711,30.0588075 63.2360485,33.1822618 64.2325823,36.5453674 C66.2495667,43.3354854 68.4419411,50.0856616 70.7857886,56.7799191 C71.9337955,60.0311874 73.0339688,62.9868859 74.070364,65.6470145 C75.1258265,62.7107165 76.1252001,59.7544785 77.0679376,56.7799191 C78.1043328,53.5286509 79.1247834,50.1815221 80.1213172,46.7465212 C82.002773,40.2439846 83.8045061,33.7254713 85.5105719,27.1750045 L102.555286,27.1750045 L102.555286,27.1750045 Z M148.579203,56.7799191 C148.579203,51.675348 147.431196,47.5932888 145.151127,44.5257532 C142.863085,41.4662059 139.466898,39.9244496 134.970537,39.9244496 C132.562912,39.9244496 130.155286,40.1081822 127.779549,40.4836358 L127.779549,70.3042366 C129.031295,71.0619425 130.391838,71.6223468 131.813518,71.9658184 C133.47175,72.405179 135.153899,72.6288535 136.851993,72.6288535 C144.664818,72.6288535 148.571231,67.3485382 148.571231,56.7799191 L148.579203,56.7799191 L148.579203,56.7799191 Z M165.392721,56.3325702 C165.392721,60.8460016 164.834662,64.9440375 163.734489,68.6346664 C162.748099,72.100752 161.096203,75.3406659 158.871404,78.1727852 C156.730007,80.8329569 154.000747,82.9578755 150.899133,84.3797519 C147.72617,85.8576011 144.07487,86.6005199 139.945234,86.6005199 C135.754783,86.6244774 131.607381,85.7530165 127.779549,84.0442402 L127.779549,105.996292 L111.292894,105.996292 L111.292894,29.172098 C112.967071,28.6768188 114.673137,28.253435 116.387175,27.8939581 C118.30052,27.4945394 120.309532,27.143051 122.414211,26.8474811 C124.510919,26.5519113 126.655459,26.3122601 128.831889,26.1285274 C131.008319,25.9447948 133.089081,25.8489344 135.082149,25.8489344 C139.873484,25.8489344 144.154593,26.567888 147.917504,28.0057954 C151.490224,29.3285517 154.734834,31.4106047 157.428423,34.1089132 C160.071458,36.8359889 162.090044,40.1071429 163.343847,43.6949622 C164.707106,47.4654749 165.392721,51.6833364 165.392721,56.3325702 Z M214.071404,50.4531268 C213.991681,49.0551613 213.752513,47.6891493 213.353899,46.3550908 C212.964228,45.0609142 212.325011,43.8558886 211.472444,42.8082527 C210.587613,41.7466514 209.493921,40.8791759 208.259619,40.2599614 C206.756435,39.5487091 205.10581,39.2064163 203.444367,39.2614146 C201.610745,39.2614146 200.016291,39.5809496 198.692894,40.2040427 C197.417331,40.7871941 196.285269,41.6419501 195.368458,42.6964155 C194.491508,43.7349041 193.805893,44.9331602 193.327556,46.2991722 C192.851293,47.6488319 192.49905,49.0392591 192.275217,50.4531268 L214.071404,50.4531268 L214.071404,50.4531268 Z M175.350087,56.7799191 C175.350087,51.6034527 176.139341,47.0740445 177.725823,43.1996831 C179.320277,39.3173332 181.393068,36.09003 183.976083,33.4938084 C186.511265,30.9375287 189.540728,28.9404352 192.881109,27.6223534 C196.172043,26.3023998 199.68433,25.6245528 203.229116,25.6252593 C211.488388,25.6252593 218.017678,28.1575745 222.809012,33.2142153 C227.600347,38.2868329 230,45.7319977 230,55.5576979 C230,56.5163028 229.960139,57.5707682 229.888388,58.7210941 C229.808666,59.8634316 229.744887,60.8779551 229.673137,61.7646646 L192.283189,61.7646646 C192.578163,65.039898 194.32409,68.0115732 197.034662,69.8568877 C199.832929,71.8539812 203.595841,72.852528 208.315425,72.852528 C211.344887,72.852528 214.310572,72.5729349 217.220451,72.0217371 C219.667288,71.6038737 222.060316,70.9153258 224.355633,69.9687249 L226.571924,83.3891935 C225.428651,83.9237674 224.245086,84.3671653 223.032236,84.7152636 C221.413865,85.1945661 219.763605,85.578008 218.105373,85.8735779 C216.295667,86.2090896 214.358406,86.4886827 212.30156,86.7043688 C210.228769,86.9280433 208.171924,87.0398805 206.107106,87.0398805 C200.869324,87.0398805 196.317158,86.2650082 192.442634,84.7152636 C188.808436,83.3211207 185.523718,81.1450645 182.820104,78.340541 C180.251168,75.6051365 178.322967,72.3303972 177.175737,68.754492 C175.928158,64.8844509 175.309065,60.8387315 175.342114,56.7719308 L175.350087,56.7799191 L175.350087,56.7799191 Z" id="Shape" fill="#161326"></path>
                <path d="M269.184511,83.4708892 L241,61.3020381 L241,55.7955815 L269.184511,33.7459178 L271.715009,40.356844 L249.265764,58.5527827 L271.715009,76.7487214 L269.176579,83.4708892 L269.184511,83.4708892 Z M325.981894,56.9000511 C325.981894,50.4321498 324.538162,45.299147 321.634832,41.5169344 C318.731502,37.7347218 314.789002,35.8356697 309.799399,35.8356697 C304.809797,35.8356697 300.867297,37.7347218 297.9719,41.5169344 C295.06857,45.3070928 293.616905,50.4321498 293.616905,56.9000511 C293.616905,63.3679525 295.06857,68.5009553 297.9719,72.2831679 C300.867297,76.0653805 304.809797,77.9564868 309.799399,77.9564868 C314.796935,77.9564868 318.731502,76.0653805 321.634832,72.2831679 C324.538162,68.4930095 325.981894,63.3679525 325.981894,56.9000511 Z M336.659167,56.9000511 C336.717645,61.1000159 336.046601,65.2781817 334.676018,69.2478628 C333.463485,72.7417782 331.576738,75.9626964 329.123202,78.7272318 C326.753117,81.3608114 323.841035,83.4482118 320.587729,84.8455168 C317.178167,86.3002442 313.505222,87.0333532 309.799399,86.9988354 C305.912428,86.9988354 302.318962,86.2837111 299.01107,84.8534627 C295.760115,83.4560483 292.850646,81.3685808 290.48353,78.7351776 C288.103751,76.0812721 286.247524,72.9267797 284.930713,69.2478628 C283.561696,65.2777878 282.890696,61.0998982 282.947564,56.9000511 C282.947564,52.418606 283.60597,48.3185604 284.930713,44.6078602 C286.247524,40.8892142 288.103751,37.7108843 290.48353,35.0728705 C292.863308,32.418965 295.719043,30.3848339 299.01107,28.9466396 C302.318962,27.5163912 305.912428,26.8012669 309.799399,26.8012669 C313.686371,26.8012669 317.287769,27.5163912 320.587729,28.9466396 C323.841658,30.3428378 326.753962,32.4303977 329.123202,35.0649247 C331.50298,37.7108843 333.359208,40.8892142 334.676018,44.5999144 C336.038371,48.5552031 336.709259,52.7162741 336.659167,56.9000511 L336.659167,56.9000511 Z M367.69148,0 C370.705867,0 373.28396,0.222483093 375.457491,0.66744928 C377.615157,1.10446964 379.138215,1.50970671 380.018733,1.87521464 L378.146641,10.6950801 C376.948273,10.143507 375.696205,9.71746648 374.410389,9.42374817 C372.792139,9.02645693 370.80899,8.81986549 368.460942,8.81986549 C363.693452,8.81986549 360.35383,10.1309266 358.442074,12.7371571 C356.538251,15.3513334 355.58634,18.8554422 355.58634,23.2653749 L355.58634,28.2315154 L377.599292,28.2315154 L377.599292,36.8288978 L355.58634,36.8288978 L355.58634,85.5685869 L345.345359,85.5685869 L345.345359,23.0508376 C345.345359,15.7009497 347.146058,10.019685 350.739524,6.01498935 C354.33299,2.00234784 359.98893,0 367.69148,0 L367.69148,0 Z M418,61.4212254 L389.823421,83.4708892 L387.284991,76.8520171 L409.742168,58.5527827 C405.964609,55.5838037 402.222798,52.5694699 398.517546,49.5104341 C394.789226,46.4433458 391.052974,43.392149 387.292923,40.356844 L389.823421,33.7459178 L418,55.7955815 L418,61.4212254 L418,61.4212254 Z" id="Shape" fill="#5AB783"></path>
                <path d="M465.074307,52.2015872 C463.600112,57.7725075 462.038263,63.3116848 460.372822,68.8270546 C458.699412,74.397975 456.946316,79.9371522 455.121502,85.4604579 L442.292026,85.4604579 C440.746114,81.8338046 439.303794,78.1595366 437.973035,74.4455897 C436.292571,69.8278039 434.682724,65.1848334 433.144052,60.5182888 C431.486579,55.4870017 429.781295,50.1620907 428.044136,44.5514914 C426.296307,38.8971448 424.614814,33.2226726 423,27.5292347 L440.36362,27.5292347 C441.718285,33.6318526 443.120762,39.7265347 444.539176,45.813281 C445.312132,49.1145672 446.1329,52.4396607 446.977574,55.7806257 C447.830216,59.1215908 448.706764,62.3276475 449.599249,65.4146675 C450.555483,62.1848034 451.49578,58.8835173 452.412172,55.5028733 C453.336531,52.1301651 454.221048,48.8050716 455.07369,45.5355286 L457.504119,36.0681383 C458.226076,33.2318891 458.906596,30.3853234 459.544085,27.5292347 L471.497013,27.5292347 C472.078723,30.1797866 472.740118,33.0207972 473.489168,36.0681383 C474.214312,39.1154793 474.995237,42.2739214 475.800068,45.5355286 C476.628804,48.8685579 477.473477,52.1857156 478.350026,55.5028733 C479.217354,58.8234913 480.136513,62.1304683 481.107168,65.4226033 C483.897589,55.7586911 486.366552,46.0055799 488.510014,36.1792393 L490.454357,27.5292347 L507.594856,27.5292347 C504.431315,38.5917176 501.044652,49.5907142 497.450805,60.510353 C495.911478,65.1858758 494.282929,69.8317962 492.566041,74.4455897 C490.972318,78.7071057 489.51406,82.3813737 488.183301,85.4604579 L475.353825,85.4604579 C473.532043,79.9218839 471.72847,74.3773864 469.943133,68.8270546 C468.177093,63.3285314 466.556249,57.7848006 465.082275,52.2015872 L465.074307,52.2015872 L465.074307,52.2015872 Z M550.944142,50.6541093 C550.864456,49.2653471 550.625397,47.908328 550.226966,46.5830521 C549.837858,45.2972379 549.198895,44.100074 548.346372,43.059564 C547.461947,42.0049516 546.368755,41.143187 545.135019,40.5280489 C543.632523,39.821479 541.982655,39.4814397 540.321973,39.5360759 C538.489191,39.5360759 536.895467,39.8535073 535.572676,40.4724984 C534.297697,41.0518106 533.166154,41.9009395 532.249762,42.948463 C531.350346,44.003469 530.658316,45.2176087 530.209796,46.5275016 C529.733751,47.868276 529.381669,49.2495496 529.157938,50.6541093 L550.944142,50.6541093 L550.944142,50.6541093 Z M512.240561,56.9392502 C512.240561,51.7968622 513.029454,47.2972726 514.615209,43.4484174 C516.200964,39.5916264 518.280774,36.3855696 520.862606,33.8064398 C523.396627,31.266989 526.424702,29.283043 529.763553,27.9736386 C533.05298,26.6623747 536.563658,25.9889902 540.106821,25.9896921 C548.362309,25.9896921 554.888608,28.5053361 559.677748,33.5286874 C564.466888,38.5679102 566.865442,45.9640609 566.865442,55.7250753 C566.865442,56.6773693 566.825599,57.7248928 566.753881,58.8676457 C566.674195,60.0024628 566.610446,61.0103074 566.53076,61.8911794 L529.157938,61.8911794 C529.452777,65.1448509 531.197905,68.0969625 533.915204,69.9301286 C536.712189,71.9140746 540.473377,72.9060476 545.190799,72.9060476 C548.218874,72.9060476 551.183201,72.6282952 554.091746,72.0807261 C556.537463,71.6656137 558.929395,70.9815987 561.22366,70.0412296 L563.438936,83.3733467 C562.296187,83.9044014 561.113164,84.3448802 559.900869,84.6906869 C558.28324,85.1668339 556.633736,85.5477515 554.976263,85.8413755 C553.167387,86.1746785 551.231012,86.4524309 549.175109,86.6666971 C547.116011,86.8876236 545.046536,86.998883 542.975523,87 C537.740141,87 533.198028,86.230229 529.325279,84.6906869 C525.689893,83.3067465 522.403868,81.1449561 519.699188,78.3579312 C517.1343,75.6397599 515.209739,72.3866383 514.065375,68.8349904 C512.818367,64.9904271 512.199558,60.971342 512.232592,56.9313144 L512.240561,56.9392502 L512.240561,56.9392502 Z M614.191069,56.0504424 C614.191069,45.4879139 610.286445,40.194746 602.469231,40.194746 C600.771915,40.194746 599.098505,40.4169479 597.441032,40.8613518 C596.014649,41.2025905 594.652016,41.7580954 593.400942,42.5119949 L593.400942,72.3505427 C594.205773,72.5092584 595.241693,72.6282952 596.500735,72.7473319 C597.74384,72.8504971 599.114442,72.9060476 600.588636,72.9060476 C605.082937,72.9060476 608.477569,71.3665055 610.764563,68.2794855 C613.043588,65.1924656 614.191069,61.1214084 614.191069,56.0583782 L614.191069,56.0504424 L614.191069,56.0504424 Z M630.996885,56.4948463 C630.996885,61.1214084 630.311584,65.3035665 628.94895,69.0492566 C627.687879,72.626126 625.671699,75.8923013 623.036235,78.6277479 C620.355375,81.3338482 617.109925,83.4199332 613.529673,84.7383016 C609.768485,86.1667427 605.489337,86.888899 600.700197,86.888899 C598.708042,86.888899 596.628233,86.7936696 594.4528,86.6111466 C592.277367,86.4286236 590.133809,86.19055 588.038062,85.896926 C585.934347,85.603302 583.926255,85.2620633 582.013786,84.8494025 C580.298443,84.5013967 578.599455,84.077738 576.921839,83.5796771 L576.921839,2.64261607 L593.400942,0 L593.400942,28.8545106 C597.225879,27.1562529 601.369561,26.2912524 605.561055,26.3150597 C609.688799,26.3150597 613.338426,27.0372161 616.509937,28.4656572 C619.681447,29.8940983 622.327028,31.9415306 624.478555,34.5762109 C626.708722,37.4033247 628.360204,40.6387548 629.339413,44.0991517 C630.48888,48.1299069 631.047145,52.3049907 630.996885,56.4948463 L630.996885,56.4948463 Z" id="Shape" fill="#161326"></path>
            </g>
        </g>
    </g>
</svg>
