<?xml version="1.0" encoding="utf-8"?>
<svg xmlns="http://www.w3.org/2000/svg" fill="#61DAFB" viewBox="175 52 490 490">
  <path d="M666 297c0-33-40-64-103-83 15-64 8-114-20-130-7-4-14-6-22-6v22c4 0 8 1 11 3 14 8 19 37 15 76l-5 29c-20-5-41-8-64-11-13-18-27-35-41-50 32-30 63-47 84-47V78c-28 0-64 20-100 54-37-34-73-54-100-54v23c21 0 51 16 84 46-14 15-28 32-41 50-23 3-44 6-64 11l-5-29c-5-38 1-68 14-76l12-2V78v1c-9 0-16 1-23 5-28 16-34 67-20 130-62 19-102 50-102 82 0 33 40 64 103 83-15 63-8 114 20 130 6 4 14 6 22 6 28 0 64-20 100-54 37 34 73 53 100 53 9 1 16-1 23-5 28-16 34-67 20-130 62-19 102-50 102-82zm-130-67l-13 39a473 473 0 00-28-47l41 8zm-46 106c-7 14-15 27-24 39a520 520 0 01-90 0 551 551 0 01-45-78 521 521 0 0145-78 520 520 0 0190 0 551 551 0 0145 77c-6 14-13 27-21 40zm33-13c5 14 10 27 13 40l-41 8a552 552 0 0028-48zM421 430l-28-32a619 619 0 0056 0c-9 12-19 22-28 32zm-74-59l-41-8 13-39a473 473 0 0028 47zm74-208l27 32a619 619 0 00-55 0c9-12 19-22 28-32zm-74 59a552 552 0 00-28 48c-5-14-10-27-13-40l41-8zm-91 125c-35-15-58-35-58-50 0-16 23-36 58-51l28-10c6 19 13 40 22 61-9 20-16 41-22 60l-28-10zm54 143c-14-8-19-37-15-76l5-29c20 5 41 8 64 11 13 18 27 35 41 50-32 30-63 47-84 47-4 0-8-1-11-3zm237-76c5 38-1 68-14 76l-12 2c-21 0-51-16-84-46 14-15 28-32 41-50 23-3 44-6 64-11l5 29zm39-67l-28 10c-6-19-13-40-22-61 9-20 16-41 22-60l28 10c35 15 58 35 58 51 0 15-23 35-58 50zM321 78z"/>
  <circle cx="420.9" cy="296.5" r="45.7"/>
</svg>
