<svg xmlns="http://www.w3.org/2000/svg" version="1.0" viewBox="0 0 889 201"><g fill="#282828"><path fill="red" d="M83 2.7c-18.3.8-40.3 2.6-46.7 3.8a38.6 38.6 0 0 0-21.1 10.6C7.3 25.2 4.5 34.2 1.9 61a667.3 667.3 0 0 0 0 80c2.6 26.8 5.4 35.8 13.3 43.9 12.1 12.2 25.5 14 111.8 14.8 70.7.7 112.7-1.2 127.2-5.7a35.4 35.4 0 0 0 22.8-21.7c5.6-14.7 8.4-62.6 6-100.8-2.4-37.3-6.2-49.3-18.2-58.1C255.9 6.8 245.7 5 208 3c-17.1-.9-107.3-1.1-125-.3zM151.4 80a981.3 981.3 0 0 1 35.6 21c0 .5-70 41.1-72.1 41.8-.5.2-.9-16.7-.9-41.8 0-25.1.4-42 .9-41.8.5.1 16.9 9.5 36.5 20.8z"/><path d="M722 97.5V186h24.7l1.2-5.6 1.3-5.6 1.8 2.7c4 6 13.3 10.5 22 10.5 13.2 0 20.7-6.9 25.6-23.6 2.5-8.8 3.3-65 1-78.3-3.6-20.8-11-28.1-27.1-26.8-7.5.6-12.9 3.2-18.3 9.1L750 73V9h-28v88.5zm45.4-15.2c3.9 3.9 4.8 13.1 4.4 44.9-.3 26.5-.4 28.6-2.5 33-1.1 2.5-3 5.1-4.1 5.7-4.4 2.3-10.4.7-13.9-3.9-.9-1.1-1.2-10.4-1.3-35.8 0-37.6.1-38.6 5.9-43.5 4.1-3.4 8.4-3.5 11.5-.4zM311 16.3l16 58.1 16 57.8V186h28v-54.3l15.4-55.1 16.2-57.9.6-2.7h-28.7l-6.3 28.7c-3.5 15.9-7.3 34.1-8.5 40.5A71.5 71.5 0 0 1 357 97a24 24 0 0 1-1.8-7.3c-.7-3.9-4.4-21.9-8.2-39.8-3.9-17.9-7-32.9-7-33.2a219 219 0 0 0-29-.4zm245 11.2V39h27v147h29V39h27V16h-83v11.5zM421.1 60.6c-20.6 5.5-27.1 23.5-25.8 71.3 1 34.4 5.2 45.8 19.5 52.8 5.4 2.6 6.4 2.8 19.2 2.8 12.1 0 14.1-.3 18.8-2.4a31.3 31.3 0 0 0 16.1-18.4c3.6-11.1 4.3-19.4 3.8-48.1-.3-23.3-.7-28-2.4-33.7-4-13.5-10.2-20.5-21.2-23.9-7.6-2.4-20-2.6-28-.4zm18.3 20.7c3.9 3.9 4.6 10.5 4.6 43.1 0 31.6-.6 37.3-4.6 41.7-2.3 2.5-7.8 2.5-10.3 0-4-4-4.5-9.1-4.5-42.1 0-33.8.5-38.2 4.9-42.6 3-3 6.9-3.1 9.9-.1zM838 60.5c-13.7 3.9-20.3 12.7-23.6 31.6-2.2 13.1-1.5 60.4 1 69.3 3.7 12.7 9 19.6 18.1 23.8 4.3 1.9 6.7 2.3 16.5 2.3 6.5 0 13.3-.6 15.7-1.3 12.4-3.7 19.9-14.1 21-28.9.5-6.6.3-8.3-.8-8.7-.8-.2-6.4-.7-12.6-.9l-11.2-.6-.6 4.7c-1.6 12.7-3.9 16.2-10.5 16.2-7.3 0-10-6.9-10-25.3V134h47.3l-.6-20.3c-.3-11.1-1.1-23.1-1.7-26.7-2.2-13.1-8.7-22.3-17.8-25.5a71.5 71.5 0 0 0-30.2-1zm17.7 20c3 2.1 4.3 8.8 4.3 22.9V116h-19.3l.5-14.3c.6-14.4 1.6-19.2 4.5-21.5 2.3-1.6 7.4-1.5 10 .3z"/><path d="M487 112c0 33.8.4 52.7 1.1 56.2 2.9 13.8 10 19.8 23.2 19.8 10.5 0 18.7-4 23.9-11.5 1.2-1.9 2.6-3.5 2.9-3.5.3 0 1 2.8 1.5 6.2l.9 6.3 11.3.3 11.2.3V61h-28v49.4c0 49.1 0 49.3-2.2 52.1-5 6.4-13.5 6.6-15.7.3-.7-2-1.1-20.1-1.1-52.4V61h-29v51zm143.2 2.7c.3 53.2.3 53.9 2.6 59.4 3.9 9.7 10.4 13.9 21.5 13.9 10.8 0 18.6-3.9 24.3-12.2l2.9-4.2 1 7 1 6.9 11.8.3 11.7.3V61h-29v98.8l-2.5 3.1a16.4 16.4 0 0 1-6.1 4.1c-3.2 1.1-4 1-6.2-.7a9.5 9.5 0 0 1-3.3-4.4c-.4-1.3-.7-24.6-.8-51.7L659 61h-29.1l.3 53.7z"/></g></svg>
